<mxfile host="app.diagrams.net" modified="2024-03-14T15:19:06.993Z" agent="Mozilla/5.0 (X11; Linux x86_64; rv:109.0) Gecko/20100101 Firefox/114.0" version="24.0.6" etag="OZeKnGET8wyagh61svis" type="github">
  <diagram name="Page-1" id="kMtIdEy7BR3_GL-3qHGY">
    <mxGraphModel>
      <root>
        <mxCell id="0" />
        <mxCell id="1" parent="0" />
      </root>
    </mxGraphModel>
  </diagram>
</mxfile>
